<svg width="353" height="28" viewBox="0 0 353 28" fill="none" xmlns="http://www.w3.org/2000/svg">
<path d="M0 14L154 13V15L0 14Z" fill="#08AF97"/>
<rect x="154.5" y="0.5" width="44" height="27" rx="7.5" stroke="#08AF97"/>
<path d="M167.162 14.101C167.162 14.747 167.241 15.3363 167.4 15.869C167.559 16.3903 167.785 16.838 168.08 17.212C168.386 17.5747 168.754 17.858 169.185 18.062C169.616 18.266 170.103 18.368 170.647 18.368C171.18 18.368 171.661 18.266 172.092 18.062C172.523 17.858 172.885 17.5747 173.18 17.212C173.486 16.838 173.718 16.3903 173.877 15.869C174.036 15.3363 174.115 14.747 174.115 14.101C174.115 13.455 174.036 12.8713 173.877 12.35C173.718 11.8173 173.486 11.3697 173.18 11.007C172.885 10.633 172.523 10.344 172.092 10.14C171.661 9.936 171.18 9.834 170.647 9.834C170.103 9.834 169.616 9.936 169.185 10.14C168.754 10.344 168.386 10.633 168.08 11.007C167.785 11.381 167.559 11.8287 167.4 12.35C167.241 12.8713 167.162 13.455 167.162 14.101ZM176.359 14.101C176.359 15.1097 176.206 15.9993 175.9 16.77C175.605 17.5407 175.197 18.1867 174.676 18.708C174.166 19.218 173.565 19.6033 172.874 19.864C172.183 20.1247 171.446 20.255 170.664 20.255C169.882 20.255 169.14 20.1247 168.437 19.864C167.746 19.6033 167.139 19.218 166.618 18.708C166.108 18.1867 165.7 17.5407 165.394 16.77C165.088 15.9993 164.935 15.1097 164.935 14.101C164.935 13.0923 165.088 12.2083 165.394 11.449C165.7 10.6783 166.114 10.0323 166.635 9.511C167.168 8.98967 167.78 8.59867 168.471 8.338C169.162 8.07733 169.893 7.947 170.664 7.947C171.435 7.947 172.166 8.07733 172.857 8.338C173.548 8.59867 174.149 8.98967 174.659 9.511C175.18 10.0323 175.594 10.6783 175.9 11.449C176.206 12.2083 176.359 13.0923 176.359 14.101ZM181.956 8.1C183.656 8.1 184.954 8.41167 185.849 9.035C186.756 9.65833 187.209 10.6103 187.209 11.891C187.209 13.489 186.421 14.5713 184.846 15.138C185.061 15.3987 185.305 15.716 185.577 16.09C185.849 16.464 186.127 16.872 186.41 17.314C186.693 17.7447 186.965 18.1923 187.226 18.657C187.487 19.1103 187.719 19.558 187.923 20H185.526C185.311 19.592 185.078 19.184 184.829 18.776C184.58 18.3567 184.325 17.9543 184.064 17.569C183.815 17.1723 183.565 16.804 183.316 16.464C183.067 16.1127 182.834 15.801 182.619 15.529C182.46 15.5403 182.324 15.546 182.211 15.546C182.098 15.546 181.99 15.546 181.888 15.546H180.851V20H178.709V8.389C179.23 8.27567 179.786 8.202 180.375 8.168C180.964 8.12267 181.491 8.1 181.956 8.1ZM182.109 9.953C181.656 9.953 181.236 9.97 180.851 10.004V13.812H181.786C182.307 13.812 182.766 13.7837 183.163 13.727C183.56 13.6703 183.888 13.5683 184.149 13.421C184.421 13.2737 184.625 13.0753 184.761 12.826C184.897 12.5767 184.965 12.2593 184.965 11.874C184.965 11.5113 184.897 11.2053 184.761 10.956C184.625 10.7067 184.427 10.5083 184.166 10.361C183.917 10.2137 183.616 10.1117 183.265 10.055C182.914 9.987 182.528 9.953 182.109 9.953Z" fill="#404145"/>
<path d="M199 13L353 14L199 15V13Z" fill="#08AF97"/>
</svg>
